<svg width="29" height="29" viewBox="0 0 29 29" fill="none" xmlns="http://www.w3.org/2000/svg">
<ellipse cx="14.0781" cy="14.0746" rx="14.0781" ry="14.0746" fill="url(#paint0_linear_201_17)"/>
<path d="M18.4181 9.13529C18.4181 11.8723 16.5069 14.0911 14.1494 14.0911C11.7919 14.0911 9.88074 11.8723 9.88074 9.13529C9.88074 6.39825 11.7919 4.17944 14.1494 4.17944C16.5069 4.17944 18.4181 6.39825 18.4181 9.13529Z" fill="white"/>
<path d="M22.3385 15.5017C22.8872 24.3587 18.6062 23.1112 13.8331 23.1112C9.05993 23.1112 6.31088 21.387 5.93921 16.4159C5.93921 12.42 9.05993 8.64062 13.8331 8.64062C18.6062 8.64062 22.3385 11.5057 22.3385 15.5017Z" fill="white"/>
<path d="M21.887 19.6873C18.6338 28.1876 13.3082 27.7161 12.3183 27.2762C8.87228 25.7446 7.58896 23.2068 6.31085 18.5828C6.31085 13.6219 9.34984 11.313 13.9807 11.313C18.6115 11.313 21.887 14.7264 21.887 19.6873Z" fill="white"/>
<defs>
<linearGradient id="paint0_linear_201_17" x1="14.0781" y1="0" x2="14.0781" y2="28.1493" gradientUnits="userSpaceOnUse">
<stop stop-color="#F6FF8C"/>
<stop offset="0.4375" stop-color="#FF545E" stop-opacity="0.83"/>
<stop offset="0.8125" stop-color="#03D2FF" stop-opacity="0.9"/>
</linearGradient>
</defs>
</svg>
